<?xml version="1.0" encoding="utf-8"?>
<svg id="Layer_2" data-name="Layer 2" viewBox="33.925 39.691 431.52 149.212" xmlns="http://www.w3.org/2000/svg">
  <defs>
    <style>.cls-1{font-size:16px;fill:#231f20;font-family:Montserrat-Bold, Montserrat;font-weight:700;letter-spacing:0.19em;}.cls-2{letter-spacing:0.2em;}</style>
  </defs>
  <title>jzhu_photograhpy</title>
  <path d="M178.43,82.14s-7.74-6.35-8.28-10.54,17.66-1.41,31.44-8.7S215,54.66,215,54.66s8.24-14.06,11.89-14.87,6.08,5.68,6.08,7S227.68,56,216.87,63c0,0-8.78,14.2-19.87,41.36s-21.72,53-24.28,56.45-3-.14-7.26-4c0,0,3.47-22-7-31.56s-21.59-10.69-30.75-10.91-53.22,9.87-89,4.86c0,0-5.67-3.27-4.8-7.85s76.78-7.48,89-5.3c0,0,86.42.43,116.41.89,47.54.73,104,4.68,107.64,5.53l2.4,8.57s-11.76-3.94-119.28-8.59c-23.16-1-64.38-1.88-83.38,0a41.34,41.34,0,0,1,17.07,12.68c6.89,9.07,6.53,17.23,7.8,18.5s30.21-68.41,34.92-74.57c0,0-17.12,7.81-26.55,8.9C179.94,78,182.18,81.74,178.43,82.14Z"/>
  <path d="M227.93,82.63s2.4-1.26,2.4-2.67S227,74.19,225,74.05s-6.9,5.2-7,6.47-1.69,5.07,3.38,9.57,16.33-.7,25.05-8l.71,1.69s-1.55,2-1.55,3.1,3.38,5.91,4.22,6.89,5.49,1.13,20.7-7.32A1.52,1.52,0,0,1,272,87.7c.42,1.41,8.62,2.38,14.55-2.11,0,0,.6,5.09,3.82,5.34s6.1-3.39,6.94-3.14.34,2.55,1.95,3.39,6.61-.59,9.75-3.89,4.57,2.62,8.72,2.2A13.07,13.07,0,0,0,324.34,87s-9.2,29.44-16,49.65-12,42.23-19.3,44.5l4.09,7.5s5.9,2.49,16.57-33.61,20.66-71.07,22.48-74c0,0-2.54-6.19-4-7s-5.12,6.8-8.93,7.79-9.42-2.65-11.08-2.65-4.63,3.31-6.45,3.64S300,78.19,298.54,78s-3.14,1-4.3.83-1.16-3.95-3.47-4.87-8.11,5.2-10.09,5.86-3.31-6.61-5.79-8.1S269.76,77,267,79.18,256,85,255.54,84.8s.82-4.46.82-5.78-6-8.11-7.44-8.93C248.92,70.09,238.25,82.46,227.93,82.63Z"/>
  <path d="M350.86,65.45s-7.69-3.79-6.8-11.58,32.42-5.91,38.43-3.12,7.58,8.91,6.58,11.58-17.6,7.91-24.29,7.91c0,0,16.66,9.84,12.05,39.24S354,178.82,349.41,179s-5.49-10.54-3.3-12.95a4.41,4.41,0,0,1,4.61-1.53s16.81-30.49,20.46-55.73-2.34-27.23-3.71-28.6-13.87-5.34-17.83-5.18l-2.9-8.39s32.62-5.48,33.54-7.47-21.19-4.87-29-.91C351.32,58.28,355,64.24,350.86,65.45Z"/>
  <path d="M405,43s-11.1,23.45-11.1,34.33,1.92,11.52,3.84,12.16,7.68-10.66,10-10.66.64,1.49,1.92,4.26,7.26,4.48,12.8,2.14,8.75,2.34,13.45,2.13,3.84-1.49,6-1.49,2.56,1.33,6.19,3.65,11.73,5.09,17.49-4.08V71.76s-3.2,8.11-7.68,10.89S447.2,82,443.58,78.81s-1.92.21-6.83.85-8.32-1.28-12.8-2.56-9.18,3.84-10.67,1.28,1.07-4.06-2.13-9.82-9.61,7.47-11.1,7.9,5.12-21.76,9-25Z"/>
</svg>